<?xml version="1.0" encoding="UTF-8" standalone="no"?>
<!-- Created with Inkscape (http://www.inkscape.org/) -->

<svg
   version="1.1"
   id="svg2"
   width="600"
   height="600"
   viewBox="0 0 600 600"
   sodipodi:docname="삼성서울병원로고.ai"
   xmlns:inkscape="http://www.inkscape.org/namespaces/inkscape"
   xmlns:sodipodi="http://sodipodi.sourceforge.net/DTD/sodipodi-0.dtd"
   xmlns="http://www.w3.org/2000/svg"
   xmlns:svg="http://www.w3.org/2000/svg">
  <defs
     id="defs6">
    <clipPath
       clipPathUnits="userSpaceOnUse"
       id="clipPath30">
      <path
         d="M 0,450 H 450 V 0 H 0 Z"
         id="path28" />
    </clipPath>
  </defs>
  <sodipodi:namedview
     id="namedview4"
     pagecolor="#ffffff"
     bordercolor="#000000"
     borderopacity="0.25"
     inkscape:showpageshadow="2"
     inkscape:pageopacity="0.0"
     inkscape:pagecheckerboard="0"
     inkscape:deskcolor="#d1d1d1" />
  <g
     id="g8"
     inkscape:groupmode="layer"
     inkscape:label="삼성서울병원로고"
     transform="matrix(1.3333333,0,0,-1.3333333,0,600)">
    <path
       d="M 428.354,21.646 H 21.647 v 406.707 h 406.707 z"
       style="fill:none;stroke:#dcdddd;stroke-width:1;stroke-linecap:butt;stroke-linejoin:miter;stroke-miterlimit:10;stroke-dasharray:none;stroke-opacity:1"
       id="path10" />
    <g
       id="g12"
       transform="translate(378.8643,222.6768)">
      <path
         d="m 0,0 0.016,17.053 3.743,0.004 V -5.988 L 0.004,-5.989 0,-3.055 H -5.21 V 0 Z"
         style="fill:#10308d;fill-opacity:1;fill-rule:nonzero;stroke:none"
         id="path14" />
    </g>
    <g
       id="g16"
       transform="translate(364.043,221.1631)">
      <path
         d="m 0,0 v -10.064 h 18.826 v 3.186 H 3.63 V 0 h -3.647"
         style="fill:#10308d;fill-opacity:1;fill-rule:nonzero;stroke:none"
         id="path18" />
    </g>
    <g
       id="g20"
       transform="translate(377.5713,227.1465)">
      <path
         d="m 0,0 h -16.293 v -3.349 h 7.297 v -5.498 h 3.338 v 5.498 H 0 Z"
         style="fill:#10308d;fill-opacity:1;fill-rule:nonzero;stroke:none"
         id="path22" />
    </g>
    <g
       id="g24">
      <g
         id="g26"
         clip-path="url(#clipPath30)">
        <g
           id="g32"
           transform="translate(369.8965,230.8618)">
          <path
             d="M 0,0 C 2.21,0 4,1.598 4,3.571 4,5.543 2.21,7.14 0,7.14 -2.207,7.14 -3.997,5.543 -3.997,3.571 -3.997,1.598 -2.207,0 0,0 m -7.378,3.571 c 0,3.635 3.305,6.583 7.378,6.583 4.076,0 7.381,-2.948 7.381,-6.583 0,-3.636 -3.305,-6.586 -7.381,-6.586 -4.073,0 -7.378,2.95 -7.378,6.586"
             style="fill:#10308d;fill-opacity:1;fill-rule:nonzero;stroke:none"
             id="path34" />
        </g>
        <path
           d="m 336.048,228.127 h -22 v -2.953 h 22 z"
           style="fill:#10308d;fill-opacity:1;fill-rule:nonzero;stroke:none"
           id="path36" />
        <g
           id="g38"
           transform="translate(315.7529,223.2949)">
          <path
             d="M 0,0 V -2.856 H 15.03 V -4.759 H 0 v -7.512 h 18.804 v 2.85 H 3.508 v 1.813 H 18.537 V -7.603 0 Z"
             style="fill:#10308d;fill-opacity:1;fill-rule:nonzero;stroke:none"
             id="path40" />
        </g>
        <g
           id="g42"
           transform="translate(307.624,227.0537)">
          <path
             d="M 0,0 H -5.443 V 3.016 H 0 v 9.767 H 3.711 V -15.732 H 0 Z"
             style="fill:#10308d;fill-opacity:1;fill-rule:nonzero;stroke:none"
             id="path44" />
        </g>
        <g
           id="g46"
           transform="translate(257.5039,239.8032)">
          <path
             d="m 0,0 v -15.13 h 3.654 v 5.635 h 3.227 v 3.1 H 3.714 l 0,6.395 z"
             style="fill:#10308d;fill-opacity:1;fill-rule:nonzero;stroke:none"
             id="path48" />
        </g>
        <path
           d="m 243.741,223.429 h 17.477 v -12.384 h -17.477 z m 13.91,-3.024 h -10.332 v -6.336 h 10.332 z"
           style="fill:#10308d;fill-opacity:1;fill-rule:nonzero;stroke:none"
           id="path50" />
        <g
           id="g52"
           transform="translate(248.7305,239.2568)">
          <path
             d="m 0,0 c 0,0 -0.485,-8.189 6.152,-11.59 l -1.904,-2.628 c 0,0 -4.862,3.207 -5.962,6.713 -1.11,-3.506 -5.96,-6.713 -5.96,-6.713 l -1.905,2.628 C -2.952,-8.189 -3.436,0 -3.436,0 Z"
             style="fill:#10308d;fill-opacity:1;fill-rule:nonzero;stroke:none"
             id="path54" />
        </g>
        <g
           id="g56"
           transform="translate(286.4033,239.8032)">
          <path
             d="m 0,0 v -15.13 h -3.655 v 6.948 h -4.741 v 3.094 h 4.682 V 0 Z"
             style="fill:#10308d;fill-opacity:1;fill-rule:nonzero;stroke:none"
             id="path58" />
        </g>
        <g
           id="g60"
           transform="translate(277.0615,210.0469)">
          <path
             d="m 0,0 c -5.428,0 -9.827,3.312 -9.827,7.396 0,4.084 4.399,7.4 9.827,7.4 5.433,0 9.827,-3.316 9.827,-7.4 C 9.827,3.312 5.433,0 0,0 m 6.113,7.396 c 0,2.286 -2.741,4.132 -6.113,4.132 -3.372,0 -6.109,-1.846 -6.109,-4.132 0,-2.277 2.737,-4.128 6.109,-4.128 3.372,0 6.113,1.851 6.113,4.128"
             style="fill:#10308d;fill-opacity:1;fill-rule:nonzero;stroke:none"
             id="path62" />
        </g>
        <g
           id="g64"
           transform="translate(359.2373,239.9092)">
          <path
             d="m 0,0 v -15.899 h -3.654 v 9.9 h -4.741 v 3.092 h 4.677 V 0 Z"
             style="fill:#10308d;fill-opacity:1;fill-rule:nonzero;stroke:none"
             id="path66" />
        </g>
        <g
           id="g68"
           transform="translate(355.873,228.2402)">
          <path
             d="M 0,0 H -4.613 V 3.09 H 0.005 Z"
             style="fill:#10308d;fill-opacity:1;fill-rule:nonzero;stroke:none"
             id="path70" />
        </g>
        <g
           id="g72"
           transform="translate(349.8965,210.1523)">
          <path
             d="m 0,0 c -5.434,0 -9.828,3.184 -9.828,7.116 0,3.92 4.394,7.111 9.828,7.111 5.428,0 9.827,-3.191 9.827,-7.111 C 9.827,3.184 5.428,0 0,0 m 6.112,7.116 c 0,2.174 -2.737,3.94 -6.112,3.94 -3.373,0 -6.109,-1.766 -6.109,-3.94 0,-2.18 2.736,-3.949 6.109,-3.949 3.375,0 6.112,1.769 6.112,3.949"
             style="fill:#10308d;fill-opacity:1;fill-rule:nonzero;stroke:none"
             id="path74" />
        </g>
        <g
           id="g76"
           transform="translate(271.7275,231.752)">
          <path
             d="m 0,0 c -1.102,-3.506 -5.551,-6.441 -5.551,-6.441 l -1.904,2.633 c 6.227,3.123 5.73,11.313 5.73,11.313 h 3.448 c 0,0 -0.494,-8.19 5.731,-11.313 L 5.549,-6.441 c 0,0 -4.45,2.935 -5.549,6.441"
             style="fill:#10308d;fill-opacity:1;fill-rule:nonzero;stroke:none"
             id="path78" />
        </g>
        <g
           id="g80"
           transform="translate(325.0908,240.9194)">
          <path
             d="m 0,0 c -5.424,0 -9.73,-2.472 -9.73,-6.102 0,-3.63 4.306,-5.835 9.73,-5.835 5.422,0 9.744,2.205 9.744,5.835 C 9.744,-2.472 5.422,0 0,0 m 0.072,-9.044 c -2.729,0 -6.212,0.94 -6.212,3.054 0,2.119 3.483,3.058 6.212,3.058 2.72,0 6.225,-0.939 6.225,-3.058 0,-2.114 -3.505,-3.054 -6.225,-3.054"
             style="fill:#10308d;fill-opacity:1;fill-rule:nonzero;stroke:none"
             id="path82" />
        </g>
        <path
           d="m 326.722,222.591 h -3.687 v 3.178 h 3.687 z"
           style="fill:#10308d;fill-opacity:1;fill-rule:nonzero;stroke:none"
           id="path84" />
        <g
           id="g86"
           transform="translate(296.667,224.3818)">
          <path
             d="m 0,0 c 1.898,-5.13 5.887,-8.325 5.887,-8.325 l 2.169,2.352 C 5.401,-4.016 3.751,-1.125 2.864,1.544 1.619,5.242 1.795,9.866 1.795,11.327 v 3.492 h -3.723 v -3.492 c 0,-1.461 0.303,-6.085 -0.934,-9.783 -0.899,-2.669 -2.804,-5.56 -5.457,-7.517 l 2.298,-2.352 c 0,0 4.117,3.195 6.021,8.325"
             style="fill:#10308d;fill-opacity:1;fill-rule:nonzero;stroke:none"
             id="path88" />
        </g>
        <path
           d="m 341.985,232.492 h 6.104 v -4.04 h -6.104 z m 6.105,7.242 v -4.235 h -6.105 v 4.235 h -3.444 V 225.44 h 12.993 v 14.294 z"
           style="fill:#10308d;fill-opacity:1;fill-rule:nonzero;stroke:none"
           id="path90" />
        <g
           id="g92"
           transform="translate(207.752,237.2339)">
          <path
             d="m 0,0 c 1.922,-10.98 -27.986,-25.369 -66.792,-32.131 -38.808,-6.756 -71.821,-3.327 -73.743,7.665 -1.905,10.982 28.008,25.369 66.815,32.122 C -34.913,14.423 -1.912,10.992 0,0"
             style="fill:#10308d;fill-opacity:1;fill-rule:nonzero;stroke:none"
             id="path94" />
        </g>
        <g
           id="g96"
           transform="translate(171.231,220.9297)">
          <path
             d="M 0,0 -0.203,11.424 H 3.398 V -2.975 H -1.774 L -5.375,8.841 h -0.076 l 0.203,-11.816 h -3.581 v 14.399 h 5.403 L -0.082,0"
             style="fill:#ffffff;fill-opacity:1;fill-rule:nonzero;stroke:none"
             id="path98" />
        </g>
        <g
           id="g100"
           transform="translate(105.7676,231.0049)">
          <path
             d="M 0,0 -1.999,-13.202 H -5.93 L -3.229,1.349 H 3.247 L 5.928,-13.202 H 2.016 L 0.079,0"
             style="fill:#ffffff;fill-opacity:1;fill-rule:nonzero;stroke:none"
             id="path102" />
        </g>
        <g
           id="g104"
           transform="translate(122.7295,221.2275)">
          <path
             d="M 0,0 1.793,11.126 H 7.728 L 8.047,-3.425 H 4.407 L 4.313,9.657 H 4.235 L 1.806,-3.425 H -1.887 L -4.315,9.657 H -4.397 L -4.488,-3.425 h -3.645 l 0.318,14.551 h 5.94 L -0.083,0"
             style="fill:#ffffff;fill-opacity:1;fill-rule:nonzero;stroke:none"
             id="path106" />
        </g>
        <g
           id="g108"
           transform="translate(93.7134,221.9082)">
          <path
             d="m 0,0 c 0.147,-0.352 0.099,-0.809 0.034,-1.077 -0.12,-0.484 -0.448,-0.975 -1.414,-0.975 -0.917,0 -1.468,0.517 -1.468,1.32 v 1.408 h -3.907 l -0.002,-1.124 c 0,-3.244 2.557,-4.226 5.29,-4.226 2.632,0 4.801,0.902 5.144,3.326 0.182,1.251 0.05,2.076 -0.008,2.393 -0.617,3.04 -6.143,3.951 -6.554,5.655 -0.072,0.29 -0.048,0.597 -0.016,0.759 0.107,0.474 0.419,0.985 1.33,0.985 0.855,0 1.361,-0.531 1.361,-1.32 V 6.216 h 3.618 v 1.03 c 0,3.163 -2.844,3.664 -4.904,3.664 -2.583,0 -4.702,-0.855 -5.088,-3.229 C -6.687,7.032 -6.699,6.444 -6.552,5.716 -5.916,2.748 -0.746,1.882 0,0"
             style="fill:#ffffff;fill-opacity:1;fill-rule:nonzero;stroke:none"
             id="path110" />
        </g>
        <g
           id="g112"
           transform="translate(141.0215,221.9326)">
          <path
             d="m 0,0 c 0.139,-0.348 0.1,-0.792 0.03,-1.06 -0.121,-0.482 -0.442,-0.97 -1.404,-0.97 -0.899,0 -1.45,0.524 -1.45,1.302 L -2.83,0.667 h -3.859 v -1.106 c 0,-3.213 2.529,-4.179 5.23,-4.179 2.608,0 4.754,0.884 5.092,3.285 0.181,1.246 0.05,2.054 -0.008,2.361 -0.614,3.024 -6.077,3.922 -6.482,5.606 -0.072,0.294 -0.054,0.599 -0.018,0.753 0.105,0.469 0.412,0.966 1.32,0.966 0.842,0 1.33,-0.512 1.33,-1.3 V 6.164 h 3.601 v 1.017 c 0,3.13 -2.821,3.621 -4.861,3.621 -2.557,0 -4.653,-0.843 -5.033,-3.194 C -6.628,6.963 -6.64,6.386 -6.486,5.663 -5.858,2.72 -0.74,1.861 0,0"
             style="fill:#ffffff;fill-opacity:1;fill-rule:nonzero;stroke:none"
             id="path114" />
        </g>
        <g
           id="g116"
           transform="translate(153.2388,219.9805)">
          <path
             d="M 0,0 C 1.01,0 1.323,0.693 1.394,1.057 1.42,1.21 1.43,1.422 1.43,1.608 V 12.374 H 5.109 V 1.937 C 5.115,1.678 5.087,1.119 5.081,0.986 4.82,-1.734 2.678,-2.609 0,-2.609 c -2.677,0 -4.824,0.875 -5.081,3.595 -0.011,0.133 -0.035,0.692 -0.029,0.951 v 10.437 h 3.678 V 1.608 c 0,-0.186 0.007,-0.398 0.033,-0.551 C -1.324,0.693 -1.016,0 0,0"
             style="fill:#ffffff;fill-opacity:1;fill-rule:nonzero;stroke:none"
             id="path118" />
        </g>
        <g
           id="g120"
           transform="translate(183.583,220.1328)">
          <path
             d="M 0,0 C 1.056,0 1.42,0.665 1.488,1.053 1.518,1.224 1.523,1.424 1.523,1.61 V 3.721 H 0.026 V 5.843 H 5.19 V 1.936 C 5.187,1.666 5.18,1.468 5.133,0.98 4.893,-1.669 2.6,-2.609 0.024,-2.609 c -2.587,0 -4.884,0.94 -5.128,3.589 -0.034,0.488 -0.05,0.686 -0.05,0.956 v 6.122 c 0,0.268 0.036,0.723 0.066,0.968 0.318,2.717 2.525,3.592 5.112,3.592 2.576,0 4.832,-0.869 5.1,-3.592 C 5.172,8.561 5.16,8.058 5.16,8.058 V 7.578 H 1.485 v 0.816 c 0,0 0,0.342 -0.047,0.553 -0.061,0.324 -0.338,1.06 -1.45,1.06 -1.059,0 -1.372,-0.697 -1.446,-1.06 C -1.503,8.758 -1.517,8.497 -1.517,8.259 V 1.61 C -1.527,1.424 -1.515,1.224 -1.485,1.053 -1.418,0.665 -1.052,0 0,0"
             style="fill:#ffffff;fill-opacity:1;fill-rule:nonzero;stroke:none"
             id="path122" />
        </g>
      </g>
    </g>
  </g>
</svg>
